<svg id="elegant_x5F_top" enable-background="new 0 0 300 300" height="512" viewBox="0 0 300 300" width="512" xmlns="http://www.w3.org/2000/svg"><circle cx="121.95" cy="118.012" fill="#e5efef" r="92"/><path d="m200.165 183.22 6.55-45.852c13.101-13.101 6.55-32.752 6.55-32.752l9.825-49.127-26.201-6.551h-3.815c-2.864 9.291-17.64 16.376-35.487 16.376s-32.623-7.085-35.487-16.376h-3.816l-26.201 6.551 9.825 49.127s-6.55 19.651 6.55 32.752l6.55 45.852-32.751 65.503s6.55 13.101 26.201 6.55v13.101s26.201 6.55 32.752-6.55h32.752c6.55 13.101 32.752 6.55 32.752 6.55v-13.101c19.651 6.55 26.201-6.55 26.201-6.55z" fill="#e7d1c4"/><g fill="#4c241d"><path d="m192.986 273.988c-7.734 0-16.559-1.652-21.262-8.164h-28.271c-9.318 12.902-34.82 6.719-35.963 6.43-1.779-.445-3.029-2.043-3.029-3.879v-7.914c-14.846 2.871-23.26-4.91-25.779-9.949-.562-1.125-.562-2.453 0-3.578l32.193-64.387-6.191-43.344c-11.846-12.902-8.131-30.258-6.891-34.773l-9.629-48.156c-.42-2.094.881-4.148 2.951-4.664l26.201-6.551c.318-.082.645-.121.971-.121h3.814c1.756 0 3.305 1.145 3.822 2.82 2.055 6.664 14.461 13.555 31.664 13.555 17.205 0 29.611-6.891 31.666-13.555.518-1.676 2.066-2.82 3.822-2.82h3.814c.326 0 .652.039.971.121l26.201 6.551c2.07.516 3.371 2.57 2.951 4.664l-9.629 48.156c1.24 4.516 4.955 21.871-6.891 34.773l-6.191 43.344 32.193 64.387c.562 1.125.562 2.453 0 3.578-2.52 5.039-10.934 12.82-25.779 9.949v7.914c0 1.836-1.25 3.434-3.029 3.879-.564.141-7.107 1.734-14.7 1.734zm-51.774-16.164h32.752c1.516 0 2.9.855 3.578 2.211 3.637 7.273 17.42 6.473 25.174 5.094v-9.855c0-1.285.617-2.492 1.662-3.246 1.043-.754 2.381-.965 3.604-.547 12.246 4.078 18.092-.426 20.314-3.059l-31.709-63.414c-.363-.727-.496-1.551-.381-2.355l6.551-45.852c.121-.855.518-1.648 1.131-2.262 11.145-11.148 5.639-28.492 5.58-28.668-.213-.652-.258-1.363-.123-2.039l9.076-45.387-22.689-5.508c-5.109 9.773-20.166 16.375-38.145 16.375-17.977 0-33.033-6.602-38.143-16.375h-.666l-22.023 5.508 9.076 45.387c.137.684.094 1.391-.127 2.051-.055.164-5.561 17.508 5.584 28.656.613.613 1.01 1.406 1.131 2.262l6.551 45.852c.115.805-.018 1.629-.381 2.355l-31.711 63.422c2.199 2.605 8.049 7.133 20.316 3.051 1.219-.418 2.557-.207 3.604.547 1.045.754 1.662 1.961 1.662 3.246v9.855c7.756 1.383 21.537 2.176 25.174-5.094.678-1.355 2.062-2.211 3.578-2.211z"/><path d="m199.362 186.012h-82.824c-2.209 0-4-1.789-4-4s1.791-4 4-4h82.824c2.209 0 4 1.789 4 4s-1.791 4-4 4z"/><path d="m206.714 259.273c-1.748 0-3.352-1.152-3.85-2.918l-20.254-72.016c-.107-.375-.156-.766-.15-1.156l.604-32.789c.043-2.207 2.014-3.871 4.074-3.926 2.209.043 3.965 1.863 3.926 4.074l-.594 32.199 20.096 71.449c.6 2.125-.641 4.336-2.766 4.934-.363.103-.729.149-1.086.149z"/><path d="m108.462 259.273c-.357 0-.723-.047-1.086-.148-2.125-.598-3.365-2.809-2.766-4.934l20.096-71.449-.596-32.199c-.041-2.211 1.717-4.031 3.926-4.074 2.193.012 4.033 1.719 4.074 3.926l.605 32.789c.006.391-.043.781-.15 1.156l-20.254 72.016c-.497 1.765-2.101 2.917-3.849 2.917z"/><path d="m173.964 265.824c-2.209 0-4-1.789-4-4v-52.402c0-2.211 1.791-4 4-4s4 1.789 4 4v52.402c0 2.211-1.791 4-4 4z"/><path d="m141.212 265.824c-2.209 0-4-1.789-4-4v-52.402c0-2.211 1.791-4 4-4s4 1.789 4 4v52.402c0 2.211-1.791 4-4 4z"/><path d="m66.679 112.738c-1.023 0-2.047-.391-2.828-1.172l-5.658-5.656c-1.562-1.562-1.562-4.094 0-5.656 1.559-1.562 4.094-1.562 5.656 0l5.658 5.656c1.562 1.562 1.562 4.094 0 5.656-.779.782-1.805 1.172-2.828 1.172z"/><path d="m46.88 92.941c-1.023 0-2.047-.391-2.828-1.172l-5.658-5.656c-1.562-1.562-1.562-4.094 0-5.656 1.559-1.562 4.094-1.562 5.656 0l5.658 5.656c1.562 1.562 1.562 4.094 0 5.656-.779.782-1.804 1.172-2.828 1.172z"/><path d="m61.021 92.941c-1.023 0-2.047-.391-2.828-1.172-1.562-1.562-1.562-4.094 0-5.656l5.658-5.656c1.562-1.562 4.094-1.562 5.656 0s1.562 4.094 0 5.656l-5.658 5.656c-.781.782-1.805 1.172-2.828 1.172z"/><path d="m41.222 112.738c-1.023 0-2.047-.391-2.828-1.172-1.562-1.562-1.562-4.094 0-5.656l5.658-5.656c1.562-1.562 4.094-1.562 5.656 0s1.562 4.094 0 5.656l-5.658 5.656c-.781.782-1.805 1.172-2.828 1.172z"/><circle cx="49.95" cy="42.012" r="4.099"/><circle cx="265.95" cy="58.012" r="4.099"/><circle cx="81.95" cy="170.012" r="4.099"/><path d="m249.95 134.012c-6.617 0-12-5.383-12-12s5.383-12 12-12 12 5.383 12 12-5.382 12-12 12zm0-16c-2.205 0-4 1.793-4 4s1.795 4 4 4 4-1.793 4-4-1.795-4-4-4z"/></g></svg>