<?xml version="1.0" encoding="iso-8859-1"?>
<!-- Generator: Adobe Illustrator 19.0.0, SVG Export Plug-In . SVG Version: 6.00 Build 0)  -->
<svg version="1.1" id="Layer_1" xmlns="http://www.w3.org/2000/svg" xmlns:xlink="http://www.w3.org/1999/xlink" x="0px" y="0px"
	 viewBox="0 0 512 512" style="enable-background:new 0 0 512 512;" xml:space="preserve">
<path style="fill:#EAA846;" d="M255.537,8.362c-82.666,0-149.92,67.254-149.92,149.92v184.017c0,24.28,5.991,48.441,17.326,69.871
	l7.086,13.394v0.004h251.017l7.085-13.396c11.334-21.43,17.325-45.592,17.325-69.872V158.283
	C405.456,75.616,338.203,8.362,255.537,8.362z"/>
<path style="fill:#E2942D;" d="M147.66,412.17c-11.334-21.429-17.326-45.591-17.326-69.871V158.282
	c0-78.505,60.655-143.101,137.561-149.407c-4.077-0.334-8.196-0.513-12.358-0.513c-82.666,0-149.92,67.254-149.92,149.92v184.017
	c0,24.28,5.991,48.441,17.326,69.871l7.086,13.394v0.004h24.716v-0.004L147.66,412.17z"/>
<path style="fill:#EFCA83;" d="M385.336,440.215c-1.547-9.268-4.686-18.13-9.332-26.343l0,0c-2.495-4.41-5.417-8.565-8.722-12.406
	l-2.379-2.764c-5.769-6.207-12.435-11.432-19.813-15.531l-53.713-29.84l-0.613-0.554c-1.114-1.008-1.748-2.439-1.748-3.94
	l0.299-59.706h-66.328v59.783c0,1.774-0.885,3.432-2.362,4.417l-53.713,29.84c-5.926,3.293-11.435,7.348-16.375,12.052l-2.731,2.82
	c-3.489,3.601-6.617,7.536-9.339,11.747l0,0c-6.013,9.299-9.983,19.535-11.801,30.423l0,0c-0.732,5.997-1.1,12.033-1.1,18.074
	v42.682c0,1.907,1.546,3.453,3.453,3.453h28.852h27.37h152.22h16.672h28.852c1.907,0,3.453-1.546,3.453-3.453v-42.682
	C386.436,452.246,386.069,446.212,385.336,440.215L385.336,440.215z"/>
<path style="fill:#9CDD04;" d="M385.336,440.215c-1.547-9.268-4.686-18.13-9.332-26.343c-1.283-2.268-2.682-4.465-4.186-6.59
	c-73.497,32.946-149.837,30.625-228.769-3.836c-1.632,2.036-3.167,4.15-4.585,6.344c-6.013,9.299-9.983,19.535-11.801,30.423
	c-0.363,2.969-0.634,5.947-0.817,8.931h41.166c-2.141,2.948-9.215,15.986-10.318,46.944l-0.297,8.334h1.472h27.37h152.22h16.672
	h1.472l-0.297-8.334c-1.103-30.958-8.095-42.898-10.236-45.845l41.087-1.041C385.974,446.2,385.701,443.203,385.336,440.215z"/>
<g>
	<path style="fill:#EDC272;" d="M373.595,168.062l-9.891-1.421h-23.34v57.485h23.34l9.891-1.421
		c13.491-1.938,23.665-13.683,23.665-27.321S387.086,169.999,373.595,168.062z"/>
	<path style="fill:#EDC272;" d="M148.296,166.64l-9.891,1.421c-13.491,1.938-23.665,13.683-23.665,27.321
		s10.174,25.384,23.665,27.321l9.891,1.421h27.965V166.64H148.296z"/>
</g>
<path style="fill:#EFCA83;" d="M255.365,320.404c-60.028-0.344-108.151-49.951-108.151-109.981v-42.101
	c0-8.946,1.095-17.85,3.255-26.462l0.968-3.857c0.397-1.585,1.822-2.695,3.455-2.695h98.912c1.191,0,2.303-0.595,2.964-1.587
	l17.917-26.875c1.41-2.115,4.518-2.115,5.929,0l17.917,26.875c0.66,0.992,1.773,1.587,2.964,1.587h59.73
	c1.968,0,3.562,1.596,3.562,3.562v72.749C364.786,271.816,315.64,320.75,255.365,320.404z"/>
<path style="fill:#EABB71;" d="M244.075,319.749c0.084,0.009,0.168,0.02,0.252,0.029c0.718,0.078,1.44,0.144,2.162,0.207
	c0.234,0.021,0.465,0.043,0.699,0.063c0.598,0.049,1.198,0.088,1.798,0.126c0.351,0.023,0.7,0.048,1.051,0.067
	c0.515,0.028,1.032,0.048,1.549,0.068c0.426,0.017,0.852,0.037,1.279,0.049c0.478,0.014,0.958,0.019,1.439,0.027
	c0.459,0.008,0.917,0.016,1.377,0.017c0.499,0.001,0.996-0.005,1.494-0.011c0.425-0.004,0.852-0.007,1.276-0.016
	c0.395-0.009,0.787-0.026,1.181-0.039c0.544-0.018,1.089-0.034,1.631-0.061c0.122-0.005,0.242-0.015,0.365-0.022
	c1.652-0.086,3.294-0.206,4.926-0.364c-55.051-5.325-98.233-51.848-98.233-108.273v-43.298c0-8.946,1.095-17.85,3.255-26.462
	l1.644-6.553h-18.328c-1.633,0-3.058,1.112-3.455,2.695l-0.968,3.857c-2.161,8.616-3.256,17.519-3.256,26.466v42.101
	C147.214,266.637,189.414,313.71,244.075,319.749z"/>
<g>
	<path style="fill:#E0A06B;" d="M195.873,249.504h-14.439c-5.788,0-10.48-4.692-10.48-10.48l0,0c0-5.788,4.692-10.48,10.48-10.48
		h14.439c5.788,0,10.48,4.692,10.48,10.48l0,0C206.353,244.812,201.661,249.504,195.873,249.504z"/>
	<path style="fill:#E0A06B;" d="M335.042,249.504h-14.439c-5.788,0-10.48-4.692-10.48-10.48l0,0c0-5.788,4.692-10.48,10.48-10.48
		h14.439c5.788,0,10.48,4.692,10.48,10.48l0,0C345.522,244.812,340.83,249.504,335.042,249.504z"/>
</g>
<path d="M413.497,157.497C413.497,70.653,342.844,0,256,0S98.503,70.653,98.503,157.497v184.017c0,29.73,8.358,58.617,24.151,83.694
	c-3.042,8.964-4.666,18.482-4.666,28.234v50.44c0,4.484,3.635,8.118,8.118,8.118h259.789c4.484,0,8.118-3.635,8.118-8.118v-50.44
	c0-9.747-1.625-19.263-4.664-28.225c15.793-25.075,24.148-53.986,24.148-83.703V157.497z M114.74,341.514v-124.36
	c6.224,7.874,15.732,13.028,26.442,13.379c6.822,41.552,35.725,75.763,74.226,90.14v26.888l-52.176,28.987
	c-13.423,7.457-24.391,18.149-32.17,30.787C120.365,387.113,114.74,364.598,114.74,341.514z M123.4,195.383
	c0-9.527,7.068-17.433,16.237-18.75v37.5C130.468,212.816,123.4,204.909,123.4,195.383z M155.873,211.619v-43.298
	c0-8.398,1.039-16.556,2.995-24.355H256c2.715,0,5.25-1.356,6.755-3.615l14.895-22.341l14.895,22.341
	c1.506,2.258,4.04,3.615,6.754,3.615h56.829v67.653c0,55.21-44.916,100.127-100.127,100.127S155.873,266.83,155.873,211.619z
	 M150.591,495.763h-16.367v-37.886h22.093C153.647,465.85,151.173,477.904,150.591,495.763z M166.843,495.763
	c1.039-29.201,7.52-39.121,8.439-40.381c2.57-2.258,3.192-5.676,1.908-8.904c-1.19-2.993-4.229-4.837-7.451-4.837h-34.535
	c1.627-9.746,5.247-18.974,10.531-27.147c5.746,2.677,26.211,11.587,56.334,17.813c5.052,1.045,9.797-2.782,9.797-7.94v-0.016
	c0-3.842-2.699-7.163-6.46-7.942c-23.421-4.855-40.774-11.469-48.9-14.913c4.342-4.135,9.231-7.766,14.609-10.753l44.765-24.869
	c1.18,3.329,4.461,5.663,8.254,5.386c4.285-0.313,7.51-4.07,7.51-8.367v-37.481c7.858,1.68,16.004,2.572,24.355,2.572
	c8.351,0,16.498-0.892,24.355-2.572v37.481c0,4.297,3.225,8.055,7.51,8.367c3.793,0.277,7.073-2.058,8.254-5.386l44.765,24.869
	c6.684,3.714,12.618,8.416,17.675,13.856c-42.43,16.521-82.748,19.255-114.704,17.088c-4.696-0.318-8.679,3.386-8.679,8.092l0,0
	c0,4.274,3.309,7.809,7.573,8.101c6.405,0.439,13.118,0.695,20.116,0.695c31.135,0,67.635-4.957,105.603-20.438
	c4.093,7.234,6.939,15.179,8.328,23.504h-34.535c-3.22,0-6.26,1.845-7.451,4.837c-1.284,3.228-0.66,6.647,1.908,8.904
	c0.919,1.26,7.399,11.18,8.439,40.381H166.843V495.763z M377.776,495.763h-16.367c-0.582-17.859-3.056-29.914-5.726-37.886h22.093
	V495.763z M397.26,341.514c0,23.074-5.624,45.6-16.32,65.824c-7.78-12.638-18.747-23.331-32.172-30.789l-52.176-28.987v-26.888
	c38.501-14.377,67.405-48.588,74.226-90.14c10.709-0.35,20.218-5.505,26.442-13.379V341.514z M372.364,214.133v-37.5
	c9.168,1.317,16.237,9.224,16.237,18.75S381.532,212.816,372.364,214.133z M397.26,173.611c-5.923-7.493-14.82-12.523-24.896-13.294
	v-24.47c0-4.484-3.635-8.118-8.118-8.118h-60.602l-19.24-28.858c-1.506-2.258-4.04-3.615-6.754-3.615s-5.25,1.356-6.755,3.615
	l-19.24,28.858h-36.55c3.657-8.723,13.419-14.213,20.603-15.43c4.42-0.75,7.396-4.941,6.646-9.362
	c-0.75-4.42-4.934-7.393-9.362-6.646c-15.53,2.635-31.208,14.691-34.808,31.439h-33.712c15.604-35.041,50.759-59.535,91.527-59.535
	c4.484,0,8.118-3.635,8.118-8.118s-3.635-8.118-8.118-8.118c-61.465,0-111.945,47.905-116.082,108.338
	c-10.192,0.698-19.201,5.752-25.178,13.315v-16.114C114.74,79.606,178.109,16.237,256,16.237s141.26,63.369,141.26,141.26V173.611z"
	/>
<circle cx="201.877" cy="200.795" r="10.825"/>
<circle cx="310.123" cy="200.795" r="10.825"/>
<path d="M212.702,179.146c5.978,0,10.825-4.846,10.825-10.825s-4.846-10.825-10.825-10.825h-21.649
	c-5.978,0-10.825,4.846-10.825,10.825s4.846,10.825,10.825,10.825H212.702z"/>
<path d="M331.772,168.321c0-5.978-4.846-10.825-10.825-10.825h-21.649c-5.978,0-10.825,4.846-10.825,10.825
	s4.846,10.825,10.825,10.825h21.649C326.926,179.146,331.772,174.3,331.772,168.321z"/>
<path d="M297.57,258.715c-3.88-2.244-8.846-0.919-11.093,2.963c-6.278,10.853-17.957,17.595-30.478,17.595
	c-12.521,0-24.199-6.743-30.478-17.595c-2.245-3.882-7.212-5.207-11.093-2.963c-3.881,2.245-5.208,7.211-2.963,11.093
	c9.172,15.854,26.235,25.702,44.533,25.702c18.298,0,35.362-9.849,44.533-25.703C302.777,265.926,301.451,260.96,297.57,258.715z"/>
<path style="fill:#CB7A49;" d="M249.13,233.268h13.742c2.183,0,3.954-1.77,3.954-3.954v-6.87c0-5.978-4.846-10.825-10.825-10.825
	c-5.978,0-10.825,4.846-10.825,10.825v6.87C245.175,231.499,246.945,233.268,249.13,233.268z"/>
<g>
</g>
<g>
</g>
<g>
</g>
<g>
</g>
<g>
</g>
<g>
</g>
<g>
</g>
<g>
</g>
<g>
</g>
<g>
</g>
<g>
</g>
<g>
</g>
<g>
</g>
<g>
</g>
<g>
</g>
</svg>
